name p15_grf_mean_speed_1.4
datacolumns 13
datarows 63
range 0.0000000000 0.6200000000
endheader
time	grf_x_l_mean	grf_x_l_var	grf_y_l_mean	grf_y_l_var	grf_z_l_mean	grf_z_l_var	grf_x_r_mean	grf_x_r_var	grf_y_r_mean	grf_y_r_var	grf_z_r_mean	grf_z_r_var
0.0000000000	128.8762177872	1.0000000000	818.8719232661	1.0000000000	0.0000000000	0.0000000000	15.2290903847	1.0000000000	11.2656617823	1.0000000000	0.0000000000	0.0000000000
0.0100000000	139.8405254425	1.0000000000	808.3562398379	1.0000000000	0.0000000000	0.0000000000	23.1732256273	1.0000000000	48.7551466870	1.0000000000	0.0000000000	0.0000000000
0.0200000000	150.8343241217	1.0000000000	786.8742900669	1.0000000000	0.0000000000	0.0000000000	28.3494517796	1.0000000000	110.1409318215	1.0000000000	0.0000000000	0.0000000000
0.0300000000	161.5121735703	1.0000000000	752.9026381135	1.0000000000	0.0000000000	0.0000000000	23.2311765012	1.0000000000	192.1263543286	1.0000000000	0.0000000000	0.0000000000
0.0400000000	169.6938376237	1.0000000000	704.4679339660	1.0000000000	0.0000000000	0.0000000000	2.6758563086	1.0000000000	285.1887932853	1.0000000000	0.0000000000	0.0000000000
0.0500000000	172.4373368129	1.0000000000	640.1224177854	1.0000000000	0.0000000000	0.0000000000	-27.6005498353	1.0000000000	378.2010771470	1.0000000000	0.0000000000	0.0000000000
0.0600000000	169.2823181256	1.0000000000	560.6246182134	1.0000000000	0.0000000000	0.0000000000	-58.5738032547	1.0000000000	458.9501086200	1.0000000000	0.0000000000	0.0000000000
0.0700000000	157.3758428821	1.0000000000	468.7485387218	1.0000000000	0.0000000000	0.0000000000	-86.6052829344	1.0000000000	518.4483342265	1.0000000000	0.0000000000	0.0000000000
0.0800000000	134.6723617607	1.0000000000	370.1542182740	1.0000000000	0.0000000000	0.0000000000	-109.7140308692	1.0000000000	556.4830479364	1.0000000000	0.0000000000	0.0000000000
0.0900000000	105.0225599331	1.0000000000	273.9334463058	1.0000000000	0.0000000000	0.0000000000	-126.2153509438	1.0000000000	581.5768338798	1.0000000000	0.0000000000	0.0000000000
0.1000000000	73.0309302507	1.0000000000	189.8608745158	1.0000000000	0.0000000000	0.0000000000	-137.5746124444	1.0000000000	604.7860374528	1.0000000000	0.0000000000	0.0000000000
0.1100000000	43.4665739220	1.0000000000	123.4079842209	1.0000000000	0.0000000000	0.0000000000	-145.3080196979	1.0000000000	631.8474593580	1.0000000000	0.0000000000	0.0000000000
0.1200000000	22.0464814706	1.0000000000	75.0774469729	1.0000000000	0.0000000000	0.0000000000	-148.0633476298	1.0000000000	662.4945577173	1.0000000000	0.0000000000	0.0000000000
0.1300000000	9.1792269985	1.0000000000	42.9194453477	1.0000000000	0.0000000000	0.0000000000	-145.8463140311	1.0000000000	694.3981118921	1.0000000000	0.0000000000	0.0000000000
0.1400000000	1.9966963174	1.0000000000	23.2418105590	1.0000000000	0.0000000000	0.0000000000	-141.0982308072	1.0000000000	724.7891157397	1.0000000000	0.0000000000	0.0000000000
0.1500000000	-0.5262831800	1.0000000000	11.6092744974	1.0000000000	0.0000000000	0.0000000000	-132.8356811960	1.0000000000	750.4790937286	1.0000000000	0.0000000000	0.0000000000
0.1600000000	0.1231452197	1.0000000000	5.0311954794	1.0000000000	0.0000000000	0.0000000000	-121.6283833069	1.0000000000	769.0884330391	1.0000000000	0.0000000000	0.0000000000
0.1700000000	0.9835926094	1.0000000000	2.1486775693	1.0000000000	0.0000000000	0.0000000000	-109.9928322444	1.0000000000	779.3823539556	1.0000000000	0.0000000000	0.0000000000
0.1800000000	2.2202256987	1.0000000000	1.5077279870	1.0000000000	0.0000000000	0.0000000000	-97.8623958436	1.0000000000	780.3254668411	1.0000000000	0.0000000000	0.0000000000
0.1900000000	3.5145621484	1.0000000000	1.6870747751	1.0000000000	0.0000000000	0.0000000000	-85.1087867671	1.0000000000	771.7236261120	1.0000000000	0.0000000000	0.0000000000
0.2000000000	3.9476204519	1.0000000000	1.9992165305	1.0000000000	0.0000000000	0.0000000000	-73.7570642029	1.0000000000	754.7515504911	1.0000000000	0.0000000000	0.0000000000
0.2100000000	4.2748022209	1.0000000000	2.1978082317	1.0000000000	0.0000000000	0.0000000000	-63.4497594694	1.0000000000	731.1104307670	1.0000000000	0.0000000000	0.0000000000
0.2200000000	4.7687171659	1.0000000000	2.0459295600	1.0000000000	0.0000000000	0.0000000000	-53.4865918871	1.0000000000	703.0843516793	1.0000000000	0.0000000000	0.0000000000
0.2300000000	4.3677426577	1.0000000000	1.4876799291	1.0000000000	0.0000000000	0.0000000000	-44.8213464081	1.0000000000	673.1668137165	1.0000000000	0.0000000000	0.0000000000
0.2400000000	3.9387907370	1.0000000000	0.8948530537	1.0000000000	0.0000000000	0.0000000000	-37.1969801398	1.0000000000	643.1606626453	1.0000000000	0.0000000000	0.0000000000
0.2500000000	4.0456215887	1.0000000000	0.3691856334	1.0000000000	0.0000000000	0.0000000000	-29.5244236855	1.0000000000	614.2233107537	1.0000000000	0.0000000000	0.0000000000
0.2600000000	0.0000000000	1.0000000000	0.0000000000	1.0000000000	0.0000000000	0.0000000000	-22.8123160582	1.0000000000	587.6578463853	1.0000000000	0.0000000000	0.0000000000
0.2700000000	0.0000000000	1.0000000000	0.0000000000	1.0000000000	0.0000000000	0.0000000000	-17.1616156230	1.0000000000	564.8203108904	1.0000000000	0.0000000000	0.0000000000
0.2800000000	0.0000000000	1.0000000000	0.0000000000	1.0000000000	0.0000000000	0.0000000000	-11.7413393958	1.0000000000	546.5097616763	1.0000000000	0.0000000000	0.0000000000
0.2900000000	0.0000000000	1.0000000000	0.0000000000	1.0000000000	0.0000000000	0.0000000000	-7.1065771067	1.0000000000	532.8532913879	1.0000000000	0.0000000000	0.0000000000
0.3000000000	0.0000000000	1.0000000000	0.0000000000	1.0000000000	0.0000000000	0.0000000000	-3.3498055920	1.0000000000	523.7923149727	1.0000000000	0.0000000000	0.0000000000
0.3100000000	0.0000000000	1.0000000000	0.0000000000	1.0000000000	0.0000000000	0.0000000000	0.3305590868	1.0000000000	519.7632178692	1.0000000000	0.0000000000	0.0000000000
0.3200000000	0.0000000000	1.0000000000	0.0000000000	1.0000000000	0.0000000000	0.0000000000	3.6257579761	1.0000000000	520.8369818882	1.0000000000	0.0000000000	0.0000000000
0.3300000000	0.0000000000	1.0000000000	0.0000000000	1.0000000000	0.0000000000	0.0000000000	6.4656322232	1.0000000000	526.0143679532	1.0000000000	0.0000000000	0.0000000000
0.3400000000	0.0000000000	1.0000000000	0.0000000000	1.0000000000	0.0000000000	0.0000000000	9.8064228816	1.0000000000	534.5378768064	1.0000000000	0.0000000000	0.0000000000
0.3500000000	0.0000000000	1.0000000000	0.0000000000	1.0000000000	0.0000000000	0.0000000000	13.4848849213	1.0000000000	546.4695591226	1.0000000000	0.0000000000	0.0000000000
0.3600000000	0.0000000000	1.0000000000	0.0000000000	1.0000000000	0.0000000000	0.0000000000	17.5189730985	1.0000000000	561.4215405676	1.0000000000	0.0000000000	0.0000000000
0.3700000000	0.0000000000	1.0000000000	0.0000000000	1.0000000000	0.0000000000	0.0000000000	22.6289566431	1.0000000000	578.5121223658	1.0000000000	0.0000000000	0.0000000000
0.3800000000	0.0000000000	1.0000000000	0.0000000000	1.0000000000	0.0000000000	0.0000000000	28.7378690898	1.0000000000	597.2760471254	1.0000000000	0.0000000000	0.0000000000
0.3900000000	0.0000000000	1.0000000000	0.0000000000	1.0000000000	0.0000000000	0.0000000000	35.7181708668	1.0000000000	617.4475880570	1.0000000000	0.0000000000	0.0000000000
0.4000000000	0.0000000000	1.0000000000	0.0000000000	1.0000000000	0.0000000000	0.0000000000	44.0556173669	1.0000000000	638.9167230282	1.0000000000	0.0000000000	0.0000000000
0.4100000000	0.0000000000	1.0000000000	0.0000000000	1.0000000000	0.0000000000	0.0000000000	53.1108996073	1.0000000000	662.2155286785	1.0000000000	0.0000000000	0.0000000000
0.4200000000	0.0000000000	1.0000000000	0.0000000000	1.0000000000	0.0000000000	0.0000000000	62.2022033269	1.0000000000	687.7274536754	1.0000000000	0.0000000000	0.0000000000
0.4300000000	0.0000000000	1.0000000000	0.0000000000	1.0000000000	0.0000000000	0.0000000000	71.3486875621	1.0000000000	714.8186116133	1.0000000000	0.0000000000	0.0000000000
0.4400000000	0.0000000000	1.0000000000	0.0000000000	1.0000000000	0.0000000000	0.0000000000	80.0160346870	1.0000000000	742.5088164809	1.0000000000	0.0000000000	0.0000000000
0.4500000000	0.0000000000	1.0000000000	0.0000000000	1.0000000000	0.0000000000	0.0000000000	87.7496838014	1.0000000000	769.7850927531	1.0000000000	0.0000000000	0.0000000000
0.4600000000	0.0000000000	1.0000000000	0.0000000000	1.0000000000	0.0000000000	0.0000000000	95.3267248397	1.0000000000	794.7670120487	1.0000000000	0.0000000000	0.0000000000
0.4700000000	0.0000000000	1.0000000000	0.0000000000	1.0000000000	0.0000000000	0.0000000000	102.9709610769	1.0000000000	815.0319891118	1.0000000000	0.0000000000	0.0000000000
0.4800000000	0.0000000000	1.0000000000	0.0000000000	1.0000000000	0.0000000000	0.0000000000	110.7488627900	1.0000000000	828.8635635570	1.0000000000	0.0000000000	0.0000000000
0.4900000000	0.0000000000	1.0000000000	0.0000000000	1.0000000000	0.0000000000	0.0000000000	119.6894772258	1.0000000000	835.1970744605	1.0000000000	0.0000000000	0.0000000000
0.5000000000	16.4168516258	1.0000000000	17.6051353983	1.0000000000	0.0000000000	0.0000000000	130.2154218814	1.0000000000	832.6595421154	1.0000000000	0.0000000000	0.0000000000
0.5100000000	24.5700131999	1.0000000000	59.2592457589	1.0000000000	0.0000000000	0.0000000000	141.9988742268	1.0000000000	819.4442669541	1.0000000000	0.0000000000	0.0000000000
0.5200000000	29.7879375959	1.0000000000	123.7842674744	1.0000000000	0.0000000000	0.0000000000	154.9782384788	1.0000000000	793.5659412774	1.0000000000	0.0000000000	0.0000000000
0.5300000000	24.3786752090	1.0000000000	205.7854307688	1.0000000000	0.0000000000	0.0000000000	167.6150449010	1.0000000000	752.6176468830	1.0000000000	0.0000000000	0.0000000000
0.5400000000	3.3363139072	1.0000000000	295.3312366829	1.0000000000	0.0000000000	0.0000000000	176.0230639173	1.0000000000	694.0120071800	1.0000000000	0.0000000000	0.0000000000
0.5500000000	-26.8923979617	1.0000000000	384.6839880755	1.0000000000	0.0000000000	0.0000000000	177.5252920973	1.0000000000	616.8967990893	1.0000000000	0.0000000000	0.0000000000
0.5600000000	-57.2145841987	1.0000000000	466.9070384102	1.0000000000	0.0000000000	0.0000000000	170.4547352544	1.0000000000	523.8933289565	1.0000000000	0.0000000000	0.0000000000
0.5700000000	-84.6998089719	1.0000000000	534.5430310258	1.0000000000	0.0000000000	0.0000000000	151.4518891580	1.0000000000	420.6864769156	1.0000000000	0.0000000000	0.0000000000
0.5800000000	-107.4364052992	1.0000000000	583.9239319397	1.0000000000	0.0000000000	0.0000000000	121.5042250131	1.0000000000	315.9575203460	1.0000000000	0.0000000000	0.0000000000
0.5900000000	-122.9535018405	1.0000000000	617.8759806292	1.0000000000	0.0000000000	0.0000000000	86.8699655376	1.0000000000	220.6290017691	1.0000000000	0.0000000000	0.0000000000
0.6000000000	-133.0497947760	1.0000000000	642.9176141605	1.0000000000	0.0000000000	0.0000000000	53.5017137695	1.0000000000	143.5586517381	1.0000000000	0.0000000000	0.0000000000
0.6100000000	-139.2215680401	1.0000000000	664.1528825776	1.0000000000	0.0000000000	0.0000000000	26.5989282922	1.0000000000	87.0470917477	1.0000000000	0.0000000000	0.0000000000
0.6200000000	-140.5296982030	1.0000000000	684.1628501916	1.0000000000	0.0000000000	0.0000000000	9.6006342565	1.0000000000	48.7636523338	1.0000000000	0.0000000000	0.0000000000
